<svg xmlns="http://www.w3.org/2000/svg" enable-background="new 0 0 96 96" viewBox="0 0 96 96" id="bakery">
  <path d="M87.081604,16.9917603C88.6973877,16.9473267,90,15.6263428,90,14V6c0-1.6542969-1.3457031-3-3-3H21
	c-1.6542969,0-3,1.3457031-3,3v8c0,1.6263428,1.3024292,2.9473267,2.9182739,2.9917603L18.5459595,47H6
	c-1.6542969,0-3,1.3457031-3,3v2c0,1.6542969,1.3457031,3,3,3v9c0,8.4933472,3.6772461,16.1365356,9.5159912,21.442749
	l-0.3431396,4.3209229c-0.0639648,0.8339844,0.2246094,1.6640625,0.7915039,2.2763672
	C16.5292969,92.6503906,17.3295898,93,18.1601562,93H92c0.2788086,0,0.5449219-0.1162109,0.734375-0.3212891
	s0.284668-0.4794922,0.2626953-0.7578125L87.081604,16.9917603z M85.5452271,22.9476318l5.3302002,67.5137329l-4.168396-4.168396
	c-0.3657227-0.3652344-0.9501953-0.3916016-1.347168-0.0615234l-4.2089844,3.5078125L85.5452271,22.9476318z M85.9384766,88.3525391
	L88.5859375,91h-5.8239136L85.9384766,88.3525391z M21,5h66c0.5512695,0,1,0.4482422,1,1v3H20V6C20,5.4482422,20.4487305,5,21,5z
	 M20,14v-3h68v3c0,0.5517578-0.4487305,1-1,1H21C20.4487305,15,20,14.5517578,20,14z M22.9238281,17h61.0080566l-4.8684692,74
	H59.4994507C70.3093872,86.7825928,78,76.2844849,78,64v-9c1.6542969,0,3-1.3457031,3-3v-2c0-1.6542969-1.3457031-3-3-3H54
	v-3.8963623c0.5692749,0.081543,1.1453857,0.1363525,1.7300415,0.1363525c2.5599976,0,5.2599487-0.7399902,7.7299805-2.1699829
	c3.460022-2,5.9799805-5.0500488,6.9299927-8.3699951c0.0700073-0.2600098,0.039978-0.5400391-0.0999756-0.7700195
	c-0.1300049-0.2399902-0.3600464-0.4100342-0.6199951-0.4700317c-3.3500366-0.8399658-7.25-0.1799927-10.710022,1.8099976
	C56.9421387,34.4406738,55.2493896,35.9693604,54,37.6965942v-5.5929565
	c0.5692749,0.081543,1.1453857,0.1363525,1.7300415,0.1363525c2.5599976,0,5.2599487-0.7399902,7.7299805-2.1699829
	c3.460022-2,5.9799805-5.0500488,6.9299927-8.3699951c0.0700073-0.2600098,0.039978-0.5400391-0.0999756-0.7700195
	c-0.1300049-0.2399902-0.3600464-0.4100342-0.6199951-0.4700317c-3.3500366-0.8399658-7.25-0.1799927-10.710022,1.8099976
	C56.9421387,23.4406738,55.2493896,24.9693604,54,26.6965942V24c0-0.5527344-0.4477539-1-1-1s-1,0.4472656-1,1v2.6965942
	c-1.2493896-1.7272339-2.9420776-3.2559204-4.9599609-4.4266357c-3.460022-1.9899902-7.3600464-2.6499634-10.710022-1.8099976
	c-0.2600098,0.0599976-0.4899902,0.2300415-0.6199951,0.4700317c-0.1400146,0.2299805-0.1699829,0.5100098-0.1000366,0.7700195
	c0.4700317,1.6599731,1.3400269,3.25,2.5200195,4.6799927c1.1900024,1.4299927,2.6799927,2.6900024,4.4100342,3.6900024
	C45.0100098,31.5,47.710022,32.2399902,50.2700195,32.2399902c0.5845947,0,1.1607056-0.0548096,1.7299805-0.1363525v5.5929565
	c-1.2493896-1.7272339-2.9420776-3.2559204-4.9599609-4.4266357c-3.460022-1.9899902-7.3600464-2.6499634-10.710022-1.8099976
	c-0.2600098,0.0599976-0.4899902,0.2300415-0.6199951,0.4700317c-0.1400146,0.2299805-0.1699829,0.5100098-0.1000366,0.7700195
	c0.4700317,1.6599731,1.3400269,3.25,2.5200195,4.6799927c1.1900024,1.4299927,2.6799927,2.6900024,4.4100342,3.6900024
	C45.0100098,42.5,47.710022,43.2399902,50.2700195,43.2399902c0.5845947,0,1.1607056-0.0548096,1.7299805-0.1363525V47H20.5525513
	L22.9238281,17z M54.3200073,41.1499634c1-2.4199829,3.0100098-4.6199951,5.6400146-6.1399536
	c2.6400146-1.5300293,5.539978-2.1600342,8.1400146-1.8200073c-1,2.4299927-3,4.6199951-5.6400146,6.1499634
	C59.8300171,40.8599854,56.9200439,41.5,54.3200073,41.1499634z M54.3200073,30.1499634
	c1-2.4199829,3.0100098-4.6199951,5.6400146-6.1399536c2.6400146-1.5300293,5.539978-2.1600342,8.1400146-1.8200073
	c-1,2.4299927-3,4.6199951-5.6400146,6.1499634C59.8300171,29.8599854,56.9200439,30.5,54.3200073,30.1499634z
	 M51.6799927,30.1499634c-2.5999756,0.3500366-5.5099487-0.289978-8.1399536-1.8099976
	c-2.6400146-1.5299683-4.6400146-3.7199707-5.6400146-6.1499634c2.5999756-0.3400269,5.5,0.2999878,8.1400146,1.8200073
	C48.6700439,25.5299683,50.6799927,27.7299805,51.6799927,30.1499634z M51.6799927,41.1499634
	c-2.5999756,0.3500366-5.5099487-0.289978-8.1399536-1.8099976c-2.6400146-1.5299683-4.6400146-3.7199707-5.6400146-6.1499634
	c2.5999756-0.3400269,5.5,0.289978,8.1400146,1.8200073C48.6700439,36.5299683,50.6799927,38.7299805,51.6799927,41.1499634z M5,52
	v-2c0-0.5517578,0.4487305-1,1-1h72c0.5512695,0,1,0.4482422,1,1v2c0,0.5517578-0.4487305,1-1,1H6C5.4487305,53,5,52.5517578,5,52z
	 M8,64v-9h68v9c0,14.8876953-12.1123047,27-27,27H35C20.1123047,91,8,78.8876953,8,64z M17.4316406,90.6806641
	c-0.1923828-0.2080078-0.2866211-0.4794922-0.2646484-0.7617188l0.2306519-2.9023438
	C19.5471802,88.663269,21.9390259,90.0006104,24.5005493,91h-6.3403931C17.8808594,91,17.6220703,90.8867188,17.4316406,90.6806641z
	"></path>
</svg>
