<svg xmlns="http://www.w3.org/2000/svg" viewBox="0 0 64 64" id="cola">
  <path d="M6.105,43.789A10.533,10.533,0,0,0,5,48.472V59.4a3.605,3.605,0,0,0,6.605,2l.672-1.008a.9.9,0,0,1,1.446,0l.336.5a4.737,4.737,0,0,0,7.882,0l.336-.5a.9.9,0,0,1,1.446,0L24.4,61.4A3.605,3.605,0,0,0,31,59.4V48.472A10.533,10.533,0,0,0,29.9,43.789,8.522,8.522,0,0,1,29,40v-.528a13.159,13.159,0,0,1,.895-4.788A10.543,10.543,0,0,0,31,30V20a5.852,5.852,0,0,0-2.764-5l-3.578-1.789C23.48,12.622,23,11.981,23,11V8a1,1,0,0,0,1-1V2a1,1,0,0,0-1-1H13a1,1,0,0,0-1,1V7a1,1,0,0,0,1,1v3c0,.981-.48,1.622-1.658,2.211L7.764,15A5.852,5.852,0,0,0,5,20V30a10.543,10.543,0,0,0,1.105,4.684A13.159,13.159,0,0,1,7,39.472V40A8.522,8.522,0,0,1,6.105,43.789ZM7,30V21H29v9a8.362,8.362,0,0,1-.061,1H7.061A8.362,8.362,0,0,1,7,30ZM14,3h8V6H14ZM8.658,16.789,12.236,15A4.3,4.3,0,0,0,15,11V8h6v3a4.3,4.3,0,0,0,2.764,4l3.578,1.789A3.492,3.492,0,0,1,28.855,19H7.145A3.492,3.492,0,0,1,8.658,16.789Zm-.763,17c-.128-.256-.237-.521-.339-.789H28.444c-.1.268-.211.533-.339.789A15.22,15.22,0,0,0,27,39.472V40a10.543,10.543,0,0,0,1.105,4.684A8.518,8.518,0,0,1,29,48.472V59.4a1.605,1.605,0,0,1-2.941.89l-.672-1.008a2.869,2.869,0,0,0-4.774,0l-.336.5a2.736,2.736,0,0,1-4.554,0l-.336-.5a2.869,2.869,0,0,0-4.774,0l-.672,1.008A1.605,1.605,0,0,1,7,59.4V48.472A8.518,8.518,0,0,1,7.9,44.684,10.543,10.543,0,0,0,9,40v-.528A15.22,15.22,0,0,0,7.9,33.789Z"></path>
  <path d="M26,23H10a1,1,0,0,0-1,1v4a1,1,0,0,0,1,1H26a1,1,0,0,0,1-1V24A1,1,0,0,0,26,23Zm-1,4H11V25H25Z"></path>
  <rect width="2" height="17" x="22" y="37"></rect>
  <rect width="2" height="17" x="12" y="37"></rect>
  <rect width="2" height="17" x="17" y="37"></rect>
  <path d="M38,63H56a1,1,0,0,0,1-1V58.3l1.16-1.741A4.332,4.332,0,0,0,59,54V29a4.332,4.332,0,0,0-.84-2.562L57,24.7V21a1,1,0,0,0-1-1H48V16.5a3.5,3.5,0,0,0-7,0V20H38a1,1,0,0,0-1,1v3.7l-1.16,1.741A4.332,4.332,0,0,0,35,29V54a4.332,4.332,0,0,0,.84,2.562L37,58.3V62A1,1,0,0,0,38,63Zm1-2V59H55v2Zm17.5-5.547L55.465,57H38.535L37.5,55.453A2.355,2.355,0,0,1,37,54V46h5.292a6.963,6.963,0,0,0,6.261-3.869l.683-1.367A4.974,4.974,0,0,1,53.708,38H57V54A2.355,2.355,0,0,1,56.5,55.453ZM43,16.5a1.5,1.5,0,0,1,3,0V20H43ZM55,22v2H39V22ZM37.5,27.547,38.535,26h16.93L56.5,27.547A2.355,2.355,0,0,1,57,29v7H53.708a6.963,6.963,0,0,0-6.261,3.869l-.683,1.367A4.974,4.974,0,0,1,42.292,44H37V29A2.355,2.355,0,0,1,37.5,27.547Z"></path>
  <rect width="12" height="2" x="43" y="28"></rect>
  <rect width="2" height="2" x="39" y="28"></rect>
  <path d="M54 8a4 4 0 104 4A4 4 0 0054 8zm0 6a2 2 0 112-2A2 2 0 0154 14zM35 7a5 5 0 105-5A5.006 5.006 0 0035 7zm8 0a3 3 0 11-3-3A3 3 0 0143 7z"></path>
</svg>
