<svg xmlns="http://www.w3.org/2000/svg" viewBox="0 0 48 48" id="fruit">
  <g>
    <path d="M47.48 22.14a10 10 0 0 0-8.22-13 5.76 5.76 0 0 1 1.45-2.38 1 1 0 0 0 0-1.42c-1.31-1.3-3.09 2-3.5 3.76a9.94 9.94 0 0 0-7.45 4.34 9.59 9.59 0 0 0-1.49-.3 5.64 5.64 0 0 1 1.44-2.38 1 1 0 0 0 0-1.42c-1.3-1.3-3.08 2-3.5 3.75a9.94 9.94 0 0 0-5.84 2.49c-.83-2.27.4-5-2.78-7.82A7.07 7.07 0 0 0 14 6.08v-.67a2.43 2.43 0 0 1 .71-1.7 1 1 0 0 0 0-1.42C13.48 1.07 12 3.65 12 5.41v.66a7.06 7.06 0 0 0-5.94 6c-.19 1.52.4 3.57-1.42 5.32A12.06 12.06 0 0 0 1.71 22H1a1 1 0 0 0-1 1v6c0 .11 0 1 1.26 1l3.91 12.49A5 5 0 0 0 9.94 46h28.12a5 5 0 0 0 4.77-3.51C47.16 28.63 46.62 30 47 30a1 1 0 0 0 1-1c0-6.5.18-6.47-.52-6.86ZM2 24h44v4H2Zm35-12.93V12a1 1 0 0 0 2 0v-.93A8 8 0 0 1 45.4 22H30.6A8 8 0 0 1 37 11.07Zm-11 4V16a1 1 0 0 0 2 0v-.93a6.35 6.35 0 0 1 .76.13 9.79 9.79 0 0 0-.28 6.8h-9.41A8 8 0 0 1 26 15.07ZM6 18.82c2.45-2.38 1.86-5.41 2-6.51a5 5 0 0 1 8.23-3.09c2.72 2.36.91 4.57 2.63 7.93A10 10 0 0 0 17.05 22H3.83A10 10 0 0 1 6 18.82ZM40.92 41.9a3 3 0 0 1-2.86 2.1H9.94a3 3 0 0 1-2.86-2.11L3.36 30h41.28Z"></path>
    <path d="M8 35h4a1 1 0 0 0 0-2H8a1 1 0 0 0 0 2zm9 0v-2a1 1 0 0 0-2 0v2a1 1 0 0 0 2 0zm-6 4v2a1 1 0 0 0 2 0v-2a1 1 0 0 0-2 0zm9-4h8a1 1 0 0 0 0-2h-8a1 1 0 0 0 0 2zm13 0v-2a1 1 0 0 0-2 0v2a1 1 0 0 0 2 0zm3 0h4a1 1 0 0 0 0-2h-4a1 1 0 0 0 0 2zm-4 6h4a1 1 0 0 0 0-2h-4a1 1 0 0 0 0 2zm-16 0h8a1 1 0 0 0 0-2h-8a1 1 0 0 0 0 2zm11-2v2a1 1 0 0 0 2 0v-2a1 1 0 0 0-2 0z"></path>
  </g>
</svg>
