<svg xmlns="http://www.w3.org/2000/svg" viewBox="0 0 64 64" id="meat">
  <path d="M5.9 33.6c3.05 2.33 6.74 3.56 10.67 3.56.79 0 1.6-.05 2.39-.15 2.99-.39 6.2-.58 9.53-.58 9.6 0 17.68 1.6 20.02 2.09 1.5.16 2.93.24 4.22.24 1.82 0 3.44-.16 4.85-.48 3.08-.7 5.26-3.45 5.18-6.51 0-.15-.01-.27-.03-.44l-.04-.25-.12-.23c-.96-1.83-2.92-3.02-5.01-3.02-.2 0-.42.01-.61.03-.73.07-1.48.11-2.23.11-9.15 0-16.39-5.66-17.18-6.31-6-4.77-12.34-7.18-18.85-7.18-4.66 0-8.49 1.28-10.88 2.35-2.99 1.35-5.22 3.98-5.96 7.05-.93 3.68.44 6.95 4.05 9.72zm8.77-11.33c2.03-.52 6.06-.47 8.24 2.99.75 1.19.4 2.75-.79 3.51-.43.26-.89.39-1.35.39-.84 0-1.67-.42-2.15-1.18-.76-1.21-2.66-.78-2.68-.77-1.36.35-2.74-.48-3.09-1.84-.35-1.38.46-2.76 1.82-3.1z"></path>
  <path d="M61.07 38.66c-.93.68-1.98 1.15-3.1 1.4-1.57.35-3.34.52-5.27.52-1.44 0-2.96-.09-4.54-.28l-.13-.02c-.93-.21-9.41-2.03-19.63-2.03-3.23 0-6.33.19-9.2.55-.88.11-1.77.17-2.64.17-4.33 0-8.4-1.36-11.77-3.93-.4-.31-.78-.62-1.13-.94L0 30.84l.99 4.82c1.65 8.03 8.82 13.86 17.06 13.86h33.14c.34.01.66.02.98.02 4.41 0 7.6-1.26 9.47-3.74 1.11-1.47 1.78-3.37 2.01-5.65l.35-3.62-2.93 2.13z"></path>
</svg>
