<svg xmlns="http://www.w3.org/2000/svg" viewBox="0 0 512 512" id="vegetables">
  <path d="M153.709 64.294l13.461 9.082 9-13.335a24.952 24.952 0 0 0-6.777-34.4l-13.462-9.083-9 13.335A24.951 24.951 0 0 0 153.709 64.294zM150.406 101.3c12.5-15.23 34.855-17.67 49.906-5.419a7 7 0 1 0 8.837-10.858A48.6 48.6 0 0 0 172.76 74.408a49.861 49.861 0 0 0-33.308 18.169c-.066.083-.132.166-.195.252l-2.382 3.213 11.248 8.336z"></path>
  <path d="M66.627 226.817a70.1 70.1 0 1 0-31.37-43.524A70.179 70.179 0 0 0 66.627 226.817zM123.059 126.9a7 7 0 0 1 9.633-2.274 49.139 49.139 0 0 1 15.949 67.558 7 7 0 0 1-11.909-7.36 35.1 35.1 0 0 0-11.4-48.289A7 7 0 0 1 123.059 126.9zM428.518 102.252c-3.436 9.1-15.239 37.591-38.977 70.715-22 30.7-58.189 70.033-111.648 97.033h52.528a229.4 229.4 0 0 0 60.732-38.688c25.466-22.846 41.857-48.765 50.084-79.172a6.953 6.953 0 0 1 8.585-4.856 7.064 7.064 0 0 1 4.929 8.647c-8.955 33.1-26.708 61.072-54.272 85.8A235.486 235.486 0 0 1 361.433 270h44.356c4.28-4 8.58-6.7 12.81-10.319 39.509-33.922 59.708-67.79 60.026-100.611.3-30.792-17.379-51.368-22.729-56.9C444.6 101.078 433.145 101.173 428.518 102.252zM451.972 87.8l-.27-27.579-14.416-1.308L431.943 87.7A129.337 129.337 0 0 1 451.972 87.8z"></path>
  <rect width="438" height="33" x="35" y="284"></rect>
  <path d="M389.185 446H119.105c-2.218 0-4.105.35-6.105.2v45.56c0 2.281 1.36 3.236 3.642 3.236H391.647c2.282 0 4.353-.955 4.353-3.236V446.21C394 446.353 391.4 446 389.185 446zM35 348.761C35 394.9 72.969 432 119.105 432h270.08A83.4 83.4 0 0 0 473 348.7V331H35zM252 92.994l-12 38.573 36.54-17.36A56.312 56.312 0 0 0 252 92.994zM263.009 189.662a56.243 56.243 0 0 0 17.374-21.708L243.9 156.6zM282.55 126.852l-34.488 16.384 36.48 11.35A56.225 56.225 0 0 0 282.55 126.852z"></path>
  <path d="M264.67,212.967A77.349,77.349,0,0,0,258.188,73.1l-2,6.442A70.544,70.544,0,0,1,214.46,213.661l-2.006,6.447A76.638,76.638,0,0,0,264.67,212.967Z"></path>
  <path d="M250.886,196.665l-20.242-35.024-12,38.572A56.324,56.324,0,0,0,250.886,196.665Z"></path>
</svg>
